<?xml version="1.0" encoding="UTF-8"?>
<svg id="Ebene_1" data-name="Ebene 1" xmlns="http://www.w3.org/2000/svg" viewBox="0 0 608.17 775.18">
  <defs>
    <style>
      .cls-1, .cls-2 {
        stroke-width: 0px;
      }

      .cls-2 {
        fill: #fff;
      }
    </style>
  </defs>
  <path class="cls-1" d="M40.76,297.21c-7.56,32.24-3.95,62.22,14.16,89.3,19.18,28.67,46.7,44.5,81.01,48.03,48.35,4.98,86.22-14.7,116.5-50.92,8.28-9.91,15.09-21.07,22.5-31.7,2.47-3.55,4.48-7.44,7.12-10.85,12.5-16.13,34.67-15.37,46.08,1.74,7.11,10.66,13.18,22.03,20.59,32.46,17.19,24.17,38.97,42.87,67.37,52.74,50.17,17.42,110.5,5.64,141.51-49.42,13.73-24.38,17.08-50.87,10.63-78.34-.15-.64-.25-1.29-.47-2.47,11.4-.78,22.49-2.72,31.99,6.26,10.82,10.21,11.34,25.43.81,35.89-1.28,1.28-2.68,3.15-2.77,4.81-2.68,52.25-44.91,100.4-96.98,114.79-15.23,4.21-30.64,6.47-46.38,6.1-4.47-.1-5.61,1.39-5.79,5.61-.31,7.31-1.5,14.58-1.93,21.89-.11,1.8.77,4.27,2.08,5.42,5.01,4.38,8.81,9.39,11.12,15.71.55,1.5,2.93,2.77,4.71,3.3,16.16,4.81,26.14,22.21,20.94,37.72-2.18,6.48-5.18,12.58-7.07,19.31-2.68,9.55-10.56,15.22-20.5,16.9-3.83.65-6.19,2.78-9.18,4.85-7.71,5.35-8.47,12.87-9.45,21.08-4.42,37.21-9.08,74.4-14.06,111.54-.77,5.74-3.64,11.2-5.65,17.11,7.23.43,14.99.62,22.69,1.41,17.88,1.83,35.73,3.9,53.58,6.02,2.6.31,5.19,1.24,7.63,2.25,1.06.44,2.55,1.94,2.41,2.69-.22,1.16-1.51,2.73-2.62,3.01-6.12,1.55-12.27,3.23-18.51,4-47.51,5.84-95.23,8.17-143.07,9.29-49.19,1.15-98.33.12-147.37-3.4-24.05-1.73-47.99-5.14-71.96-7.93-2.77-.32-5.51-1.32-8.12-2.35-1.05-.41-2.42-1.76-2.41-2.67.01-.93,1.39-2.4,2.42-2.67,6.11-1.55,12.22-3.39,18.45-4.07,18.86-2.07,37.78-3.65,56.67-5.42.64-.06,1.27-.23,1.56-.28-2-6.66-4.76-13.07-5.78-19.75-4.09-26.99-7.64-54.07-11.39-81.11-.11-.82-.26-1.64-.35-2.47-.75-7.21-3.32-11.34-11.68-13.35-19.49-4.68-28.34-21.86-22.91-40.83.39-1.36.23-3.3-.47-4.5-14.42-24.71-3.38-46.94,25.08-50.36.47-.06.92-.29,2.13-.68-1.99-22.05-4-44.21-6.08-67.26-3.33,0-6.74.02-10.15,0-31.06-.19-59.74-8.68-84.77-27.01-31.13-22.79-50.73-52.84-53.73-92.33-.16-2.16-1.42-4.67-2.97-6.2-7.64-7.52-9.88-16.38-6.2-26.44,3.53-9.66,12.15-16.09,22.3-16.41,5.46-.17,10.93-.03,16.73-.03h0ZM253.96,749.21c-2.47-19.35.66-37.48-4.67-55.07-1.19-3.91-1.3-8.21-1.53-12.35-2.21-40.08-4.28-80.18-6.51-120.26-1.7-30.44-3.53-60.87-5.43-91.3-.22-3.48,1.1-4.94,4.07-6.79,9.86-6.12,19.3-12.92,28.87-19.5,1.54-1.06,2.93-2.32,4.77-3.78,1.8,66.98,3.57,133.05,5.34,199.19,2.68.43,5.13,1.11,7.58,1.13,1.49.01,3.54-.53,4.4-1.59,12.17-14.9,33.02-16.19,47.29-3.05,1.82,1.67,4.88,2.75,7.39,2.78,8.08.11,15.41,1.97,22.08,6.66,22.15,15.56,21.36,49.15-.1,60.04-1.06.54-1.75,2.12-2.25,3.37-2.07,5.16-3.98,10.38-5.98,15.56-.47,1.21-1.54,2.35-1.57,3.54-.15,6.97-.07,13.94-.07,21.56,6.48-2.72,12.82-6.12,19.58-8.04,10.33-2.94,13.97-8.63,14.35-19.72,1.31-38.12,3.92-76.19,6.26-114.27.37-6.06-1.11-10.42-5.6-14.89-12.96-12.91-14.11-33.11-3.72-47.61.91-1.27,1.12-3.68.63-5.23-4.48-14.18.21-29.04,11.99-37.92,1.35-1.02,2.67-3,2.77-4.62.82-12.29,1.23-24.61,2-36.91.21-3.36-.78-4.84-4.07-6.08-27.6-10.42-50.56-27.34-68.85-50.47-6.61-8.36-12.66-17.15-19.22-25.55-6.71-8.6-13.22-8.4-19.8.37-2.5,3.33-4.75,6.84-7.13,10.26-20.37,29.18-45.6,52.5-79.38,65.36-3.06,1.17-3.93,2.78-3.75,5.89,1.12,19.79,2.27,39.59,2.98,59.39.18,5.01,1.65,7.91,6.14,10.56,18.54,10.93,23.37,29.31,13.48,48.52-.61,1.18-.25,3.37.46,4.66,8.96,16.29,4.64,35.31-10.42,46.15-1.3.94-2.38,3.1-2.4,4.71-.07,4.48.45,8.97.77,13.46,1.99,28.08,3.95,56.16,6.07,84.24.11,1.49,1.23,3.63,2.46,4.19,9.65,4.42,19.45,8.53,30.73,13.4h-.01ZM298.36,672.05c-.59-1.75-1.37-3.28-1.61-4.89-1.54-10.05-14.17-12.85-22.28-6.28-5.74,4.65-7.88,10.98-8.28,18.03-.66,11.53,5.86,21.71,16.51,26.05,10.31,4.2,20.32,1.61,28.34-7.3.66-.73,1.48-1.31,2.59-2.29-2.59,13.85.03,20.86,8.87,24.72,7.95,3.47,17.02,1.17,21.94-5.57,5.51-7.54,4.21-13.32-5.53-24.53,15.16,2.57,22.7.32,25.91-7.7,3.28-8.21.35-17.8-7.05-23.05-4.42-3.14-9.6-4.07-14.23-1.93-4.34,2-7.87,5.77-11.3,8.42,1.19-9.27-2.14-16.57-9.69-20.18-5.81-2.78-12.69-1.89-16.49,2.8-7.59,9.36-3.32,17.35,4.23,24.94-4.38-.46-8-.83-11.94-1.24h0ZM192.01,580.91c18.41-7.49,22.98-12.43,21.67-22.34-1.25-9.45-10.15-17.79-20.09-18.65-5.06-.44-10.01.7-12.92,4.97-2.66,3.9-4.15,8.61-6.11,12.87-.8-.74-1.81-1.86-3-2.74-5.6-4.15-13.51-4.15-18.07-.07-4.81,4.31-5.83,11.57-2.29,17.82,3.49,6.17,8.77,9.86,15.9,10.72,1,.12,1.99.29,3.58.52-3.45,1.65-6.27,2.7-8.77,4.26-5.4,3.37-7.83,8.59-6.62,13.91,1.4,6.14,5.38,9.91,11.47,11.09,6.5,1.26,12.11-1.06,17.06-5.19,1.14-.95,2.22-1.99,3.32-2.99.41.26.81.52,1.22.78-1.87,5-3.74,10.01-5.6,14.99,11.03,4.02,25.88-2.58,29.79-13.6,1.92-5.4,1.75-10.78-.73-16.02-3.63-7.67-10.4-10.17-19.81-10.35v.02ZM424.13,547.25c-17.87,1.84-24.46,6.49-25.26,17.28-.76,10.26,7.8,21.14,18.93,24.05,8.72,2.28,16.8-1.52,19.93-8.46-2.43-5.21-4.51-9.68-6.6-14.15,3.06,1.13,4.78,2.96,6.8,4.36,13.07,9.07,23.32,5,26.34-10.35.6-3.07.69-6.48,2.14-9.11,3.48-6.3,2.31-11.39-4.02-14.7-6.1-3.19-11.87-1.75-17.59,1.44,1.05-17.82-3.39-25.78-15.18-27.63-9.78-1.53-20.33,5.2-22.85,14.57-2.65,9.88,2.63,17.1,17.35,22.69h.01ZM287.24,725.54v25.17h37.22v-11.36c-12.63-2.95-13.87-3.71-22.37-12.93-.76-.83-2.13-1.56-3.21-1.55-3.95.05-7.89.43-11.65.67h.01Z"/>
  <path class="cls-1" d="M536.18,238.82c10.21,9.34,18.61,19.08,21.77,28.15-3.4-2.84-9.49-7.59-15.18-12.77-16.2-14.76-34.73-24.98-56.68-27.19-13.04-1.31-26.29-.76-39.45-.76-104.99,0-209.99.08-314.98.07-29.8,0-53.48,13.04-73.58,33.91-3.41,3.54-6.66,7.22-9.98,10.84l-1.16-.71c4.21-7.43,8.41-14.85,12.92-22.82-.92-.99-2.26-2.42-3.59-3.86-18.59-20.19-18.1-52.4,1.77-69.62,5.41-4.69,8.26-9.45,10.21-16.29,8.83-30.87,45.55-43.82,74.46-26.81,1.41.83,2.79,1.72,4.69,2.89.83-4.87,1.35-9.39,2.4-13.79,5.7-24.07,19.82-41.42,42.21-51.85,3.22-1.5,4.76-3.39,5.71-6.7,9.31-32.47,30.89-52.48,63.56-59.53,37.46-8.09,76.24,9.23,96.62,41.73,1.23,1.96,2.49,3.9,3.64,5.71,6.54-1.67,12.69-3.81,19.03-4.77,33.45-5.08,64.78,13.74,76.2,45.58.99,2.77,1.87,4.38,5.35,4.4,20.26.11,35.99,9.17,48.45,24.8,1.9,2.38,4.9,4.49,7.8,5.35,31.95,9.54,49.8,41.74,41.99,76-3.5,15.34-11.18,28.03-24.17,38.05h-.01ZM265.63,102.23c-.07.58-.15,1.16-.22,1.74-9.85-1-19.72-1.79-29.54-3.03-15.72-2-30.29-.19-40.53,13.42-10.44,13.88-10.7,29.21-4.69,45.04,9.87,26.02,45.54,43.16,70.96,38.73,24.97-4.36,38.7-24.15,33.09-48.87-1.95-8.61-6.56-16.62-9.23-23.14,4.18,1.99,10.05,5.6,16.42,7.65,19.54,6.26,36.94-5.37,39.3-25.73.96-8.31-.31-16.33-3.62-23.93-8.1-18.62-21.45-32.38-39.62-41.3-12.3-6.04-25.07-7.82-38.16-2.29-12.64,5.34-21.36,17.98-20.91,31.38.47,13.91,8.64,22.53,20.8,27.96,1.95.87,3.96,1.61,5.94,2.41v-.04ZM460.28,187.41c.22.14.43.29.65.43-.8,1.72-1.57,3.45-2.41,5.14-2.95,5.98-4.04,12.2-3.26,18.89.44,3.77,1.78,4.94,5.69,4.71,15.38-.9,30.64-.52,45.1,5.96,1.01.45,3.03.1,3.85-.67,9.16-8.51,15.59-18.45,16.76-31.35,1.91-21.2-14.61-33.9-34.37-26.18-2.16.85-4.15,2.15-6.34,2.92-5.14,1.8-10.36,3.4-15.54,5.08,2.12-3.23,4.81-5.49,7.06-8.12,4.41-5.17,7.8-10.86,6.78-18.1-1.66-11.71-11.74-20.06-24.68-20.5-12.36-.42-22.27,7.69-24.68,20.29-.53,2.75-.8,5.55-1.2,8.36-8-2.45-14.18.23-16.61,8.08-1.33,4.3-1.83,9.28-1.11,13.7,3.13,19.17,23.63,29.19,39.38,15.33,1.58-1.39,3.28-2.65,4.93-3.98h0ZM423.39,103.63c-2.35-4.52-4.23-9.19-7-13.25-7.43-10.88-23.64-15.01-35.27-9.47-2.39,1.14-3.13,2.34-2.96,5.3.57,9.76,1.6,19.71.35,29.32-3.46,26.62-16.65,46.53-42.57,56.56-1.02.39-1.92,1.09-2.8,1.59,6.11,21.6,34.83,32.04,53.06,19.48-.06-.43-.07-.92-.22-1.37-7.9-23.53-2.09-45.11,16.52-61.38.86-.75,1.94-1.55,2.27-2.54,3.27-10.08,10.23-17.36,18.61-24.25h.01ZM163.29,195.2c-5.03-11.62-10.39-24.03-15.58-36.02-3.09,4.04-6.64,8.69-11.02,14.42-1.42-13.29-6.78-21.83-19.45-23.17-9.16-.97-17.71,4.72-21.02,13.03-3.94,9.88-1.49,15.64,12.11,27.29-2.84-.33-4.89-.52-6.92-.82-3.61-.54-7.2-1.49-10.83-1.67-8.91-.43-15.94,4.95-17.7,13.64-2.26,11.15,1.01,20.64,9.1,28.44,13.33-7.6,26.82-13.76,42.33-14.06,1.5-.03,3.43-1.7,4.36-3.12,3.92-6.03,8.7-11.2,15.59-13.42,6.53-2.1,13.38-3.23,19.03-4.54Z"/>
  <path class="cls-1" d="M173.69,248.5c15.98,0,31.98-.33,47.95.12,10.1.28,19.64,3.38,28.34,8.71,16.7,10.23,23.87,27.34,19.16,46.31-4.94,19.89-16.03,36.48-28.86,51.96-16.8,20.27-36.34,37.3-61.44,46.47-48.06,17.57-100.23-7.3-114.23-54.6-6.51-22-6.2-44.04,6.55-64.06,14.09-22.12,35.59-32.63,61.09-34.68,13.73-1.11,27.62-.2,41.44-.2v-.03h0ZM178.61,280.67c-1.86,0-2.82-.16-3.71.02-16.58,3.48-33.18,6.86-49.71,10.57-10.86,2.44-21.68,5.12-32.38,8.15-6.81,1.93-9.41,6.72-7.68,12.33,1.74,5.64,7.28,8.53,13.62,6.77,2.69-.75,5.26-2.04,7.77-3.31,14.52-7.34,28.92-14.95,43.55-22.06,9.05-4.4,18.45-8.1,28.54-12.49v.02ZM152.55,373.56c.29.54.57,1.07.86,1.61,22.64-12.09,45.29-24.17,67.93-36.26-.26-.5-.53-.99-.79-1.49-24.37,8.84-46.58,21.75-67.99,36.14h0Z"/>
  <path class="cls-1" d="M432.56,248.53c14.65,0,29.41-1.18,43.93.24,32.14,3.13,61.9,22.17,69.29,56.62,10.59,49.38-26.2,102.59-83.6,102.09-29.42-.26-53.91-11.74-75.19-31.2-16.64-15.21-30.23-32.91-40.32-52.98-4.11-8.17-7.22-17.35-8.44-26.38-2.55-18.94,8.94-35.92,27.59-43.38,10.36-4.15,21.22-5.56,32.26-5.7,11.49-.15,22.99-.03,34.48-.03v.73h0ZM473.14,281.63c0-.15-.02-.29-.03-.44-11.59,2.08-23.23,3.88-34.74,6.29-20.01,4.2-39.95,8.72-59.89,13.25-7.62,1.73-10.16,4.66-9.79,10.39.39,6.1,5.16,11.04,11.67,11.58,2.59.22,5.36-.04,7.85-.75,3.33-.95,6.57-2.36,9.67-3.92,8.75-4.41,17.3-9.24,26.14-13.47,16.3-7.81,32.74-15.3,49.13-22.93h0ZM456.25,381.69c8.95-1.43,34.01-14.11,39.51-19.77-14.26,4.06-27.11,10.62-39.51,19.77Z"/>
  <path class="cls-1" d="M143.23,713.97c-10.63-5.89-20.08-11.05-29.41-16.42-1.05-.6-1.76-2.31-2.04-3.63-13.48-62.05-26.93-124.11-40.31-186.19-2.91-13.49-5.61-27.02-8.37-40.54-.19-.92-.11-1.9-.2-3.61,2.49,1.57,4.33,3.01,6.39,3.96,8.42,3.91,16.73,8.16,25.45,11.25,3.76,1.34,5.14,2.9,5.83,6.52,8.97,47.24,18.13,94.44,27.11,141.67,5.04,26.48,9.87,52.99,14.75,79.5.36,1.93.43,3.91.81,7.49h-.01Z"/>
  <path class="cls-1" d="M547.02,465.08c-2.12,10.27-4.44,21.63-6.82,32.97-13.63,64.99-27.26,129.99-40.97,194.96-.35,1.64-1.13,3.78-2.4,4.54-9.1,5.45-18.38,10.59-28.92,16.59.48-3.85.68-6.36,1.13-8.82,7.39-40.27,14.83-80.53,22.22-120.8,6.15-33.56,12.22-67.13,18.41-100.68.27-1.46.95-3.57,2.02-4.03,11.81-5.1,23.74-9.94,35.34-14.72h0Z"/>
  <path class="cls-1" d="M277.1,252.16h53.83c-4.73,6.45-9.54,12.99-15.05,20.5-6.63,0-14.75.06-22.87-.07-1.08-.02-2.56-.65-3.14-1.5-4.38-6.29-8.59-12.7-12.76-18.94h-.01Z"/>
  <path class="cls-2" d="M253.96,749.21c-11.29-4.87-21.08-8.98-30.73-13.4-1.23-.56-2.35-2.7-2.46-4.19-2.12-28.07-4.08-56.16-6.07-84.24-.32-4.49-.84-8.98-.77-13.46.03-1.61,1.1-3.78,2.4-4.71,15.06-10.84,19.38-29.86,10.42-46.15-.71-1.28-1.07-3.47-.46-4.66,9.89-19.21,5.06-37.59-13.48-48.52-4.49-2.65-5.96-5.55-6.14-10.56-.72-19.81-1.86-39.6-2.98-59.39-.18-3.11.69-4.73,3.75-5.89,33.78-12.86,59.01-36.18,79.38-65.36,2.38-3.41,4.63-6.93,7.13-10.26,6.58-8.77,13.09-8.97,19.8-.37,6.56,8.4,12.61,17.19,19.22,25.55,18.29,23.13,41.25,40.05,68.85,50.47,3.29,1.24,4.28,2.72,4.07,6.08-.77,12.3-1.18,24.62-2,36.91-.11,1.62-1.42,3.6-2.77,4.62-11.78,8.89-16.47,23.74-11.99,37.92.49,1.55.28,3.96-.63,5.23-10.39,14.49-9.24,34.7,3.72,47.61,4.49,4.47,5.98,8.83,5.6,14.89-2.34,38.08-4.95,76.15-6.26,114.27-.38,11.09-4.01,16.78-14.35,19.72-6.76,1.92-13.1,5.32-19.58,8.04,0-7.62-.08-14.6.07-21.56.03-1.19,1.1-2.33,1.57-3.54,2.01-5.18,3.92-10.4,5.98-15.56.5-1.24,1.19-2.83,2.25-3.37,21.46-10.89,22.25-44.47.1-60.04-6.67-4.69-14-6.55-22.08-6.66-2.51-.03-5.57-1.11-7.39-2.78-14.26-13.15-35.12-11.85-47.29,3.05-.86,1.06-2.91,1.6-4.4,1.59-2.45-.02-4.89-.69-7.58-1.13-1.77-66.14-3.55-132.21-5.34-199.19-1.83,1.46-3.23,2.72-4.77,3.78-9.57,6.58-19.01,13.38-28.87,19.5-2.98,1.85-4.29,3.31-4.07,6.79,1.89,30.43,3.73,60.86,5.43,91.3,2.23,40.08,4.3,80.18,6.51,120.26.23,4.14.35,8.43,1.53,12.35,5.32,17.59,2.2,35.72,4.67,55.07h.01ZM363.09,640.81c.39-3.84.66-5.79.77-7.74,1.53-25.1,3.02-50.2,4.54-75.3,1.78-29.42,3.56-58.85,5.41-88.26.15-2.38-.36-3.6-2.67-5.02-10.17-6.24-20.08-12.91-30.04-19.49-1.56-1.03-2.91-2.4-4.35-3.62-.6.18-1.2.37-1.8.55,0,14.6.29,29.2-.06,43.79-.98,40.96-1.95,81.93-3.61,122.86-.34,8.38-.09,14.73,9,17.77,2.43.81,4.37,3,6.62,4.42,4.97,3.14,9.99,6.2,16.18,10.04h0Z"/>
  <path class="cls-2" d="M298.36,672.05c3.95.41,7.56.79,11.94,1.24-7.55-7.58-11.82-15.57-4.23-24.94,3.8-4.69,10.68-5.58,16.49-2.8,7.55,3.61,10.88,10.91,9.69,20.18,3.43-2.65,6.96-6.42,11.3-8.42,4.63-2.13,9.81-1.21,14.23,1.93,7.39,5.25,10.33,14.84,7.05,23.05-3.21,8.02-10.75,10.27-25.91,7.7,9.74,11.21,11.04,16.99,5.53,24.53-4.92,6.74-13.99,9.04-21.94,5.57-8.84-3.86-11.47-10.87-8.87-24.72-1.12.98-1.94,1.56-2.59,2.29-8.03,8.92-18.03,11.51-28.34,7.3-10.65-4.34-17.17-14.52-16.51-26.05.41-7.05,2.55-13.38,8.28-18.03,8.11-6.57,20.74-3.77,22.28,6.28.25,1.61,1.02,3.14,1.61,4.89h-.01Z"/>
  <path class="cls-2" d="M192.01,580.91c9.4.18,16.18,2.68,19.81,10.35,2.47,5.23,2.64,10.61.73,16.02-3.91,11.02-18.76,17.63-29.79,13.6,1.86-4.99,3.73-9.99,5.6-14.99-.41-.26-.81-.52-1.22-.78-1.1,1-2.18,2.04-3.32,2.99-4.95,4.13-10.56,6.45-17.06,5.19-6.1-1.18-10.08-4.95-11.47-11.09-1.21-5.32,1.22-10.54,6.62-13.91,2.5-1.56,5.33-2.61,8.77-4.26-1.59-.23-2.58-.4-3.58-.52-7.13-.87-12.41-4.55-15.9-10.72-3.54-6.25-2.52-13.51,2.29-17.82,4.55-4.08,12.47-4.08,18.07.07,1.19.88,2.2,2.01,3,2.74,1.97-4.27,3.45-8.97,6.11-12.87,2.91-4.27,7.87-5.41,12.92-4.97,9.95.86,18.84,9.2,20.09,18.65,1.31,9.9-3.26,14.85-21.67,22.34v-.02Z"/>
  <path class="cls-2" d="M424.13,547.25c-14.72-5.59-20.01-12.81-17.35-22.69,2.52-9.37,13.07-16.1,22.85-14.57,11.79,1.85,16.23,9.81,15.18,27.63,5.73-3.2,11.49-4.63,17.59-1.44,6.33,3.31,7.5,8.4,4.02,14.7-1.45,2.63-1.53,6.04-2.14,9.11-3.02,15.35-13.27,19.41-26.34,10.35-2.02-1.4-3.74-3.24-6.8-4.36,2.08,4.47,4.17,8.94,6.6,14.15-3.13,6.95-11.21,10.75-19.93,8.46-11.13-2.91-19.69-13.79-18.93-24.05.8-10.78,7.39-15.43,25.26-17.28h-.01Z"/>
  <path class="cls-2" d="M287.24,725.54c3.76-.24,7.7-.62,11.65-.67,1.08-.01,2.44.72,3.21,1.55,8.51,9.22,9.75,9.98,22.37,12.93v11.36h-37.22v-25.17h-.01Z"/>
  <path class="cls-2" d="M265.63,102.23c-1.98-.8-3.99-1.54-5.94-2.41-12.16-5.43-20.33-14.05-20.8-27.96-.45-13.39,8.27-26.04,20.91-31.38,13.09-5.53,25.85-3.75,38.16,2.29,18.17,8.92,31.52,22.69,39.62,41.3,3.31,7.6,4.58,15.63,3.62,23.93-2.36,20.36-19.76,31.99-39.3,25.73-6.37-2.04-12.24-5.66-16.42-7.65,2.67,6.52,7.28,14.53,9.23,23.14,5.61,24.72-8.12,44.51-33.09,48.87-25.41,4.43-61.09-12.71-70.96-38.73-6-15.84-5.75-31.16,4.69-45.04,10.24-13.61,24.8-15.41,40.53-13.42,9.82,1.25,19.69,2.04,29.54,3.03.07-.58.15-1.16.22-1.74v.04Z"/>
  <path class="cls-2" d="M460.28,187.41c-1.64,1.32-3.34,2.58-4.93,3.98-15.76,13.86-36.26,3.84-39.38-15.33-.72-4.41-.21-9.4,1.11-13.7,2.42-7.85,8.6-10.53,16.61-8.08.4-2.81.67-5.61,1.2-8.36,2.41-12.6,12.32-20.71,24.68-20.29,12.94.44,23.02,8.8,24.68,20.5,1.02,7.24-2.37,12.92-6.78,18.1-2.25,2.64-4.95,4.9-7.06,8.12,5.18-1.68,10.4-3.28,15.54-5.08,2.18-.76,4.17-2.07,6.34-2.92,19.76-7.73,36.28,4.97,34.37,26.18-1.16,12.91-7.59,22.85-16.76,31.35-.82.76-2.84,1.12-3.85.67-14.46-6.48-29.72-6.86-45.1-5.96-3.91.23-5.25-.94-5.69-4.71-.79-6.69.3-12.91,3.26-18.89.84-1.7,1.61-3.43,2.41-5.14-.22-.14-.43-.29-.65-.43h0Z"/>
  <path class="cls-2" d="M423.39,103.63c-8.38,6.89-15.35,14.16-18.61,24.25-.32.99-1.41,1.79-2.27,2.54-18.61,16.26-24.43,37.84-16.52,61.38.15.45.15.94.22,1.37-18.23,12.55-46.95,2.12-53.06-19.48.88-.51,1.78-1.2,2.8-1.59,25.92-10.03,39.11-29.94,42.57-56.56,1.25-9.61.22-19.56-.35-29.32-.17-2.96.57-4.16,2.96-5.3,11.63-5.54,27.83-1.41,35.27,9.47,2.77,4.06,4.65,8.73,7,13.25h-.01Z"/>
  <path class="cls-2" d="M163.29,195.2c-5.66,1.31-12.5,2.44-19.03,4.54-6.89,2.22-11.67,7.4-15.59,13.42-.93,1.43-2.86,3.1-4.36,3.12-15.51.29-29,6.45-42.33,14.06-8.08-7.81-11.36-17.29-9.1-28.44,1.76-8.69,8.79-14.07,17.7-13.64,3.63.17,7.21,1.13,10.83,1.67,2.03.3,4.08.49,6.92.82-13.6-11.65-16.05-17.41-12.11-27.29,3.32-8.31,11.86-14,21.02-13.03,12.66,1.34,18.03,9.88,19.45,23.17,4.38-5.73,7.93-10.38,11.02-14.42,5.19,11.99,10.56,24.41,15.58,36.02Z"/>
  <path class="cls-2" d="M178.61,280.67c-10.09,4.38-19.49,8.08-28.54,12.49-14.63,7.12-29.03,14.72-43.55,22.06-2.51,1.27-5.08,2.56-7.77,3.31-6.33,1.76-11.88-1.13-13.62-6.77-1.73-5.61.88-10.4,7.68-12.33,10.7-3.04,21.52-5.72,32.38-8.15,16.53-3.71,33.13-7.09,49.71-10.57.89-.19,1.85-.02,3.71-.02v-.02Z"/>
  <path class="cls-2" d="M152.55,373.56c21.42-14.4,43.62-27.3,67.99-36.14.26.5.53.99.79,1.49-22.64,12.09-45.29,24.17-67.93,36.26-.29-.54-.57-1.07-.86-1.61h0Z"/>
  <path class="cls-2" d="M473.14,281.63c-16.38,7.63-32.83,15.13-49.13,22.93-8.84,4.23-17.38,9.06-26.14,13.47-3.1,1.56-6.34,2.97-9.67,3.92-2.49.71-5.26.97-7.85.75-6.51-.54-11.28-5.48-11.67-11.58-.36-5.73,2.18-8.66,9.79-10.39,19.94-4.53,39.88-9.05,59.89-13.25,11.51-2.42,23.16-4.22,34.74-6.29,0,.15.02.29.03.44h0Z"/>
  <path class="cls-2" d="M456.25,381.69c12.4-9.15,25.25-15.7,39.51-19.77-5.5,5.66-30.56,18.33-39.51,19.77Z"/>
  <path class="cls-1" d="M363.09,640.81c-6.2-3.84-11.22-6.9-16.18-10.04-2.25-1.42-4.19-3.61-6.62-4.42-9.09-3.04-9.34-9.39-9-17.77,1.66-40.94,2.63-81.9,3.61-122.86.35-14.59.06-29.2.06-43.79.6-.18,1.2-.37,1.8-.55,1.44,1.21,2.79,2.58,4.35,3.62,9.96,6.58,19.86,13.25,30.04,19.49,2.31,1.42,2.82,2.64,2.67,5.02-1.85,29.42-3.63,58.84-5.41,88.26-1.52,25.1-3.02,50.2-4.54,75.3-.12,1.95-.38,3.89-.77,7.74h0Z"/>
</svg>
